<?xml version="1.0" standalone="no"?>
<!DOCTYPE svg PUBLIC "-//W3C//DTD SVG 20010904//EN"
 "http://www.w3.org/TR/2001/REC-SVG-20010904/DTD/svg10.dtd">
<svg version="1.0" xmlns="http://www.w3.org/2000/svg"
 width="300.000000pt" height="300.000000pt" viewBox="0 0 300.000000 300.000000"
 preserveAspectRatio="xMidYMid meet">
<metadata>
Created by potrace 1.11, written by Peter Selinger 2001-2013
</metadata>
<g transform="translate(0.000000,300.000000) scale(0.100000,-0.100000)"
fill="#000000" stroke="none">
<path d="M1270 2398 c-134 -216 -249 -402 -256 -413 -12 -19 -1 -27 216 -149
151 -83 228 -132 223 -139 -6 -11 -115 -184 -169 -269 l-24 -38 -33 19 c-17
10 -117 68 -221 129 l-189 111 -31 -52 c-32 -52 -102 -163 -181 -287 -59 -92
-187 -296 -205 -325 -8 -13 -55 -88 -105 -167 -50 -78 -97 -153 -105 -167 -8
-14 -19 -30 -23 -36 -4 -5 -43 -66 -86 -135 l-78 -125 748 -3 c412 -1 1086 -1
1499 0 l749 3 -28 45 c-16 25 -117 189 -224 365 -107 176 -277 455 -377 620
-101 165 -227 372 -280 460 -54 88 -147 241 -207 340 -60 99 -116 191 -124
205 -8 14 -16 27 -19 30 -3 3 -10 14 -17 25 -13 23 -151 251 -186 308 l-23 38
-244 -393z"/>
</g>
</svg>
